<svg version="1.1" id="Layer_1" xmlns="http://www.w3.org/2000/svg" xmlns:xlink="http://www.w3.org/1999/xlink" x="0px" y="0px"
	 width="100%" viewBox="0 0 400 400" enable-background="new 0 0 400 400" xml:space="preserve">
<path fill="#FFD43A" opacity="1.000000" stroke="none" 
	d="
M220.000000,401.000000 
	C146.666672,401.000000 73.833336,401.000000 1.000000,401.000000 
	C1.000000,267.666656 1.000000,134.333328 1.000000,1.000000 
	C134.333328,1.000000 267.666656,1.000000 401.000000,1.000000 
	C401.000000,134.333328 401.000000,267.666656 401.000000,401.000000 
	C340.833344,401.000000 280.666656,401.000000 220.000000,401.000000 
M104.935287,227.924240 
	C106.139870,227.783920 107.344452,227.643585 109.038963,227.405258 
	C109.375038,227.389618 109.704582,227.428802 110.036263,228.228455 
	C110.056976,228.462769 110.077698,228.697083 109.595222,229.385651 
	C109.497742,230.501175 109.400253,231.616699 109.302780,232.732224 
	C110.872826,231.789810 112.442871,230.847397 114.818054,229.901047 
	C115.891617,229.904160 116.965179,229.907257 117.919014,230.598282 
	C118.312424,231.781830 118.499710,233.805344 119.144730,233.963638 
	C120.278610,234.241913 121.692490,233.379227 123.742668,233.031403 
	C131.170441,235.611969 131.693726,235.439011 133.633560,229.954758 
	C134.059311,229.945541 134.485077,229.936340 135.743179,230.002701 
	C139.486938,231.395950 145.120163,229.519257 145.999527,235.955658 
	C146.049911,236.324463 147.060242,236.632980 147.667557,236.843201 
	C151.224899,238.074478 154.803986,239.243103 158.358490,240.482361 
	C161.169495,241.462418 164.582458,240.400833 163.978607,237.947495 
	C162.627457,232.458099 166.157257,233.222565 168.983887,232.423721 
	C169.931686,236.838409 173.839081,238.707764 176.644302,235.989609 
	C179.573898,233.150986 181.917664,229.716537 184.647842,226.658920 
	C185.711700,225.467468 187.131149,224.593536 187.608841,224.206589 
	C188.663452,221.992477 189.387085,220.473221 190.384232,219.623657 
	C190.983627,221.341370 191.454987,223.117371 192.205521,224.766296 
	C194.878967,230.639908 202.052658,231.817276 206.338562,226.911713 
	C208.217300,224.761307 209.432037,222.030746 210.883743,219.668686 
	C212.453690,220.834564 213.839279,221.863510 215.432388,223.333740 
	C215.432388,223.333740 215.508545,223.815399 214.891541,224.226303 
	C215.621506,225.707962 216.228333,228.379425 217.102280,228.469879 
	C221.391022,228.913727 225.750778,228.671280 230.085464,228.671280 
	C229.903778,225.470047 230.542542,223.910660 230.785370,222.291870 
	C231.107208,220.146545 231.119614,217.954803 231.393402,215.310822 
	C231.393402,215.310822 231.664291,214.903305 232.347046,214.647308 
	C233.875168,211.747452 235.403275,208.847580 237.612793,206.092606 
	C239.067810,206.730835 240.522812,207.369080 241.997345,208.905838 
	C241.992050,211.602264 241.986755,214.298706 241.311157,217.239807 
	C239.484940,219.405624 239.023514,221.408569 242.051971,223.740265 
	C243.984085,228.590652 249.174683,231.059906 254.082504,229.405777 
	C257.264893,228.333206 258.908905,226.459976 257.048004,222.349411 
	C257.090759,221.918549 257.133545,221.487671 257.818329,220.780441 
	C259.156952,218.212128 260.760315,216.077316 264.530945,217.319824 
	C264.710205,217.838379 264.889435,218.356934 265.021271,219.617371 
	C265.851379,222.704712 266.960907,225.489151 271.541534,225.209915 
	C272.013885,225.499344 272.486267,225.788773 273.195953,226.752945 
	C276.311218,229.045609 279.499359,230.333511 283.635132,227.230484 
	C284.083862,227.145721 284.532623,227.060959 285.584961,227.462692 
	C290.817688,228.198944 296.050415,228.935196 301.697998,229.729828 
	C301.697998,227.801208 301.697998,226.701981 301.762787,225.282745 
	C301.762787,225.282745 301.918579,224.995834 302.589600,224.575943 
	C303.046143,223.042892 303.885468,221.513184 303.898926,219.976227 
	C304.011230,207.159241 304.016418,194.340591 303.918396,181.523483 
	C303.906677,179.992279 303.083557,178.467316 302.562836,176.316666 
	C302.567871,175.898926 302.572876,175.481171 303.146393,174.636429 
	C304.018921,170.941086 302.683411,169.022141 298.381134,169.136719 
	C298.381134,169.136719 298.018677,169.014862 297.390656,168.523865 
	C288.749054,167.066788 284.486908,170.401962 285.311371,177.976013 
	C286.015503,184.444672 285.063873,185.534454 278.270844,186.038513 
	C271.552948,186.537003 266.724243,190.082733 264.310669,196.105881 
	C263.866394,196.734543 263.422150,197.363220 262.286530,197.733398 
	C257.918915,192.917953 264.399170,189.888153 264.770386,185.303848 
	C261.771210,186.355179 259.363831,187.199051 256.560120,187.532471 
	C257.672913,185.288574 258.785736,183.044678 260.143616,180.306580 
	C259.467987,179.550186 258.305664,178.248901 257.063446,176.132492 
	C256.971588,174.770370 256.879761,173.408264 257.243805,171.624374 
	C256.874695,167.658707 253.802368,166.895721 250.922806,167.298691 
	C247.450256,167.784622 242.777481,167.246323 242.208069,172.658997 
	C241.984116,174.787766 242.005920,176.954666 242.072754,179.099304 
	C242.233292,184.249817 244.023727,185.212585 249.766586,182.886566 
	C250.508957,182.897339 251.251312,182.908127 252.450241,183.384216 
	C253.113525,183.926041 253.776794,184.467865 254.142456,184.766571 
	C248.858856,186.629410 243.761230,188.426682 238.252823,189.895370 
	C237.851013,189.556168 237.449203,189.216980 236.850647,188.215134 
	C229.837448,182.730087 226.227585,185.957825 222.339661,196.275589 
	C218.019791,193.939316 221.114227,191.584763 223.332077,188.020325 
	C219.996109,188.856583 218.117020,189.327637 215.778320,189.606277 
	C215.494247,189.430450 215.237122,189.221466 215.028076,188.356491 
	C214.994324,187.942307 214.960571,187.528107 214.959976,186.341354 
	C214.304657,185.060989 213.649338,183.780624 212.994019,182.500244 
	C211.999390,183.679794 211.004761,184.859344 209.342957,186.059219 
	C208.898300,186.078247 208.453659,186.097260 207.728928,185.498062 
	C206.479019,184.996002 205.242920,184.121872 203.976135,184.074905 
	C201.817108,183.994888 199.638809,184.434479 197.540009,184.648499 
	C197.289627,181.871460 197.100204,179.770599 196.834183,176.820145 
	C195.104828,178.648163 194.169128,179.637253 193.238495,180.620987 
	C187.955963,175.850403 185.978867,176.110596 181.763062,181.804657 
	C179.970718,184.225449 178.401886,184.201675 176.123398,181.979752 
	C174.643661,180.536774 172.131836,179.515884 170.110718,179.561417 
	C169.239639,179.581039 168.440094,182.776993 167.144485,185.506622 
	C166.214935,184.484665 165.282028,183.653580 164.585419,182.657272 
	C162.355270,179.467575 160.212631,176.216660 158.181763,172.424850 
	C157.479385,171.591171 156.777008,170.757507 155.578461,169.426758 
	C153.054321,166.816132 150.192032,166.421158 147.044250,167.390488 
	C148.104950,165.490356 149.165649,163.590210 150.607285,161.007675 
	C144.778442,161.007675 139.675171,160.938675 134.574554,161.025269 
	C128.292389,161.131912 122.062614,162.677216 115.708015,161.100769 
	C112.974495,160.422638 110.643097,161.512466 111.521896,165.175507 
	C109.442238,164.733368 107.721260,164.367493 105.394440,163.539993 
	C99.315254,162.473770 98.425903,162.955841 99.022377,167.708588 
	C99.042099,168.178818 99.061821,168.649048 98.910088,169.915207 
	C98.626663,172.028976 98.117775,174.140640 98.098076,176.256866 
	C98.002640,186.504288 98.038574,196.752914 97.387833,207.196579 
	C95.398399,208.838364 95.708481,210.089035 98.051422,211.898743 
	C98.055367,214.893936 98.059319,217.889145 98.165092,221.516830 
	C98.785797,222.010880 99.406509,222.504913 100.065712,223.618942 
	C100.070618,224.032974 100.075531,224.447006 100.044449,225.638123 
	C100.118141,228.616501 101.126411,229.933807 104.935287,227.924240 
z"/>
<path fill="#FBD343" opacity="1.000000" stroke="none" 
	d="
M99.081543,169.119278 
	C99.061821,168.649048 99.042099,168.178818 99.422066,167.355103 
	C102.276527,166.815659 105.285858,167.771820 106.000282,164.001602 
	C107.721260,164.367493 109.442238,164.733368 111.521896,165.175507 
	C110.643097,161.512466 112.974495,160.422638 115.708015,161.100769 
	C122.062614,162.677216 128.292389,161.131912 134.574554,161.025269 
	C139.675171,160.938675 144.778442,161.007675 150.607285,161.007675 
	C149.165649,163.590210 148.104950,165.490356 146.830048,167.963638 
	C146.152725,169.128616 145.689590,169.720428 145.134521,170.477859 
	C145.042572,170.643463 144.790802,170.927170 144.493134,170.928253 
	C143.798157,170.957718 143.400848,170.986084 142.937851,170.664093 
	C139.620255,164.398590 139.167221,164.177048 134.879517,167.317200 
	C137.554703,168.713058 139.867249,169.919693 142.141022,171.485687 
	C142.428772,173.975677 139.890625,176.803848 143.693329,178.530701 
	C143.733170,180.971619 143.706039,182.986191 143.532516,185.172150 
	C143.466904,185.892776 143.547684,186.442017 143.676544,187.413956 
	C143.710419,189.533630 143.696228,191.230606 143.356232,193.114777 
	C142.765594,193.708801 142.273392,194.113373 142.269333,194.522797 
	C142.178055,203.711639 142.078125,212.901764 142.188583,222.089142 
	C142.199692,223.012955 143.546234,223.920731 144.443024,224.999939 
	C144.803314,225.421860 144.930817,225.707794 145.021851,226.316772 
	C145.369797,227.101227 145.691391,227.590622 146.027771,228.436401 
	C146.859573,230.112061 147.676575,231.431335 148.493576,232.750610 
	C148.847870,232.590759 149.202148,232.430908 149.556427,232.271057 
	C149.709061,231.163239 149.861694,230.055405 150.405579,228.939697 
	C152.834106,228.586426 154.871384,228.241058 157.082947,228.072205 
	C157.665543,228.207138 158.073837,228.165558 158.482132,228.123978 
	C158.282715,227.715256 158.083282,227.306549 157.839874,226.616547 
	C157.488586,225.878265 157.181244,225.421249 156.888977,224.555084 
	C156.993500,222.785645 157.082947,221.425400 157.587021,220.039673 
	C159.109436,219.866440 160.217255,219.718658 161.356430,219.582001 
	C161.387802,219.593124 161.408173,219.656509 161.380692,220.006058 
	C162.245728,220.897049 163.138245,221.438492 164.234070,222.099792 
	C164.691040,222.416016 164.888794,222.658066 165.088013,223.263641 
	C165.812302,224.022934 166.479202,224.464432 167.345886,225.008850 
	C167.805389,225.274414 168.011658,225.488556 168.128265,226.109268 
	C168.108582,226.939224 168.125107,227.414108 167.832367,228.041275 
	C166.541275,228.766739 165.559464,229.339935 164.577652,229.913132 
	C164.824875,230.331284 165.072113,230.749451 165.319336,231.167618 
	C166.581528,230.401581 167.843735,229.635544 169.511032,228.884827 
	C172.204483,228.106094 174.492844,227.312057 176.848801,226.276352 
	C177.238129,225.664337 177.559860,225.293976 178.243256,224.858902 
	C182.787460,219.901840 181.239258,215.320175 174.724396,213.297424 
	C174.720871,213.274078 174.758286,213.245255 174.680756,213.002380 
	C174.317871,212.594742 174.032547,212.429977 173.736115,212.293182 
	C173.725021,212.321182 173.665726,212.310730 173.676208,211.956573 
	C169.963501,208.545959 171.702744,205.571014 173.973831,202.393387 
	C174.641357,201.731079 175.156082,201.277130 175.942200,200.711624 
	C176.399200,200.266083 176.584793,199.932129 176.817322,199.223053 
	C176.838715,197.340759 176.813187,195.833603 176.851440,193.921967 
	C176.923904,192.702438 176.932602,191.887405 177.186508,191.004181 
	C177.732117,190.617523 178.032516,190.299072 178.332916,189.980621 
	C178.218185,189.877823 178.103470,189.775024 177.988770,189.672241 
	C177.635239,190.134430 177.281693,190.596603 176.608154,190.902451 
	C169.587936,186.842560 168.369736,187.063004 162.442856,191.981857 
	C161.091690,193.103226 158.972672,193.299362 157.153992,193.461578 
	C157.114639,187.685684 157.128403,182.369537 157.338348,176.761688 
	C157.701752,175.309799 157.868973,174.149582 158.036194,172.989380 
	C160.212631,176.216660 162.355270,179.467575 164.585419,182.657272 
	C165.282028,183.653580 166.214935,184.484665 167.144485,185.506622 
	C168.440094,182.776993 169.239639,179.581039 170.110718,179.561417 
	C172.131836,179.515884 174.643661,180.536774 176.123398,181.979752 
	C178.401886,184.201675 179.970718,184.225449 181.763062,181.804657 
	C185.978867,176.110596 187.955963,175.850403 193.238495,180.620987 
	C194.169128,179.637253 195.104828,178.648163 196.834183,176.820145 
	C197.100204,179.770599 197.289627,181.871460 197.540009,184.648499 
	C199.638809,184.434479 201.817108,183.994888 203.976135,184.074905 
	C205.242920,184.121872 206.479019,184.996002 207.637543,186.041183 
	C205.013428,190.122910 202.480682,193.661499 200.043747,197.066269 
	C198.184692,194.534119 196.138977,191.747696 193.870667,188.837463 
	C193.442871,188.447037 193.237656,188.180389 192.910126,187.578354 
	C188.648361,184.524216 184.884338,187.038040 182.164276,189.246933 
	C180.761459,190.386108 181.300201,194.585968 181.809280,197.240295 
	C182.447144,200.566177 183.955231,203.725174 184.761627,206.982834 
	C183.895782,207.279251 183.356018,207.549042 182.816254,207.818817 
	C183.887955,208.208298 184.959671,208.597778 186.301270,209.118896 
	C187.126328,209.480621 187.681488,209.710724 188.308746,210.073502 
	C188.380859,210.206177 188.346130,210.506180 188.256470,210.923889 
	C188.814774,213.879059 189.462753,216.416504 190.110718,218.953949 
	C189.387085,220.473221 188.663452,221.992477 187.608841,224.206589 
	C187.131149,224.593536 185.711700,225.467468 184.647842,226.658920 
	C181.917664,229.716537 179.573898,233.150986 176.644302,235.989609 
	C173.839081,238.707764 169.931686,236.838409 168.983887,232.423721 
	C166.157257,233.222565 162.627457,232.458099 163.978607,237.947495 
	C164.582458,240.400833 161.169495,241.462418 158.358490,240.482361 
	C154.803986,239.243103 151.224899,238.074478 147.667557,236.843201 
	C147.060242,236.632980 146.049911,236.324463 145.999527,235.955658 
	C145.120163,229.519257 139.486938,231.395950 135.530029,229.675613 
	C136.597290,227.046112 138.815140,224.813019 138.991455,222.428955 
	C139.658463,213.409637 139.856186,204.339478 139.768478,195.292816 
	C139.748672,193.249298 137.873016,191.223785 136.873291,189.182281 
	C136.894913,189.174561 136.865067,189.157028 136.815384,188.816360 
	C134.821350,188.221710 132.876999,187.967712 130.614319,187.777252 
	C129.865356,187.817963 129.434738,187.795151 128.916504,187.498138 
	C127.366547,188.001434 125.085121,188.448486 124.610680,189.624527 
	C123.592163,192.149185 123.199257,195.038895 123.100830,197.798782 
	C122.892601,203.637238 123.037392,209.488266 123.037392,215.872177 
	C116.744392,213.704437 115.262154,209.416870 115.021721,204.705429 
	C114.718071,198.755478 115.057671,192.774979 114.878960,186.814880 
	C114.829750,185.173706 113.921967,183.558273 113.341217,181.576935 
	C113.320114,180.507217 113.365936,179.791626 113.665115,178.963516 
	C113.742966,177.875519 113.567474,176.900009 113.315277,175.546631 
	C113.089142,173.891769 112.939728,172.614807 112.769623,170.946381 
	C108.643379,165.790024 103.765800,168.374863 99.081543,169.119278 
M126.112534,170.494644 
	C125.542007,172.175858 124.584869,173.832077 124.474358,175.543015 
	C124.158936,180.426254 126.400047,182.731857 131.095078,182.840240 
	C136.015854,182.953842 137.963364,181.009491 138.023392,175.923126 
	C138.098404,169.570038 134.685516,167.799347 126.112534,170.494644 
M119.921280,169.603485 
	C119.926758,168.886642 119.932236,168.169815 119.937706,167.452972 
	C118.919312,167.768250 117.133934,167.929733 117.033798,168.429138 
	C116.784950,169.670105 117.304688,171.065201 117.723251,173.708817 
	C118.846039,171.556076 119.215897,170.846939 119.921280,169.603485 
M175.292282,186.252213 
	C174.878448,185.967773 174.464630,185.683350 174.050781,185.398911 
	C173.934998,185.673141 173.819199,185.947372 173.703415,186.221619 
	C174.120743,186.347153 174.538071,186.472702 175.292282,186.252213 
M141.250153,226.709579 
	C140.965805,227.123016 140.681458,227.536453 140.397110,227.949890 
	C140.671173,228.065643 140.945221,228.181412 141.219269,228.297165 
	C141.344757,227.880157 141.470245,227.463150 141.250153,226.709579 
z"/>
<path fill="#FDFCF0" opacity="1.000000" stroke="none" 
	d="
M193.032440,187.913757 
	C193.237656,188.180389 193.442871,188.447037 193.905685,189.202942 
	C195.941330,194.014954 197.719376,198.337723 199.497421,202.660477 
	C201.753067,200.105530 202.817184,197.596848 203.774826,195.048141 
	C206.135193,188.766129 208.617157,187.405121 215.006943,188.979324 
	C215.237122,189.221466 215.494247,189.430450 216.100586,190.034973 
	C217.961105,194.595596 219.499374,198.727524 221.037643,202.859436 
	C221.516724,202.787323 221.995804,202.715210 222.474884,202.643097 
	C223.492813,200.097076 224.509796,197.550674 225.528824,195.005066 
	C228.327728,188.013153 229.690674,187.288483 237.047379,188.877792 
	C237.449203,189.216980 237.851013,189.556168 238.494049,190.463516 
	C238.401840,193.428131 238.403244,195.933075 237.668930,198.199677 
	C235.846329,203.825516 233.687851,209.342560 231.664276,214.903305 
	C231.664291,214.903305 231.393402,215.310822 231.072815,215.722763 
	C230.100204,217.470062 229.389557,218.780365 228.805725,220.144897 
	C225.290497,228.360764 222.528442,229.131439 215.508545,223.815399 
	C215.508545,223.815399 215.432388,223.333740 215.333557,222.726059 
	C214.018616,218.893967 212.802505,215.669540 211.586395,212.445129 
	C208.997604,215.749557 208.171234,219.079117 206.360779,221.738831 
	C204.854156,223.952209 202.290558,226.590881 200.010330,226.776947 
	C198.127121,226.930634 195.431213,224.122650 194.061417,222.002777 
	C191.753387,218.430939 190.210709,214.364563 188.346130,210.506180 
	C188.346130,210.506180 188.380859,210.206177 188.292999,209.682159 
	C186.689240,204.997894 185.114822,200.857803 183.672958,196.672058 
	C182.027267,191.894638 183.710403,188.969055 188.614059,188.092361 
	C190.051559,187.835373 191.557739,187.962616 193.032440,187.913757 
z"/>
<path fill="#FEFDEE" opacity="1.000000" stroke="none" 
	d="
M112.790314,171.337830 
	C112.939728,172.614807 113.089142,173.891769 113.195145,175.932739 
	C113.238411,177.489822 113.325089,178.282913 113.411758,179.076019 
	C113.365936,179.791626 113.320114,180.507217 113.217728,182.036652 
	C113.085922,192.012436 112.853271,201.178329 113.083168,210.332626 
	C113.123672,211.945862 114.768654,214.375244 116.241150,214.936630 
	C120.789658,216.670700 120.307678,220.217331 120.028809,223.648483 
	C119.720703,227.439331 116.636108,227.056625 113.965919,227.156586 
	C112.650421,227.205841 111.340210,227.396255 110.027603,227.522812 
	C109.704582,227.428802 109.375038,227.389618 108.579834,227.194839 
	C106.423180,226.310226 104.725655,225.636032 103.018219,224.969589 
	C103.008316,224.977325 103.037636,224.969070 102.977806,224.583817 
	C102.208138,220.318848 101.016762,216.456253 100.877991,212.556213 
	C100.447617,200.460983 100.405319,188.351669 100.237152,176.247482 
	C100.160675,170.742844 103.876144,168.049316 109.129868,169.800156 
	C110.381783,170.217392 111.571815,170.820312 112.790314,171.337830 
z"/>
<path fill="#FEFDED" opacity="1.000000" stroke="none" 
	d="
M257.176300,221.056808 
	C257.133545,221.487671 257.090759,221.918549 256.876038,222.973297 
	C254.450623,227.484848 250.825546,227.756805 247.146027,226.707397 
	C243.327011,225.618179 244.028290,222.103409 244.012360,219.187134 
	C243.968903,211.233139 244.027481,203.278595 243.985565,195.324600 
	C243.967697,191.933945 244.430588,188.852432 248.511444,188.219254 
	C252.515091,187.598053 255.797104,188.552444 256.996033,193.395233 
	C257.040131,194.846451 257.126129,195.901428 257.114594,197.419006 
	C257.070129,205.606659 257.123230,213.331741 257.176300,221.056808 
z"/>
<path fill="#F5DA6B" opacity="1.000000" stroke="none" 
	d="
M110.031937,227.875641 
	C111.340210,227.396255 112.650421,227.205841 113.965919,227.156586 
	C116.636108,227.056625 119.720703,227.439331 120.028809,223.648483 
	C120.307678,220.217331 120.789658,216.670700 116.241150,214.936630 
	C114.768654,214.375244 113.123672,211.945862 113.083168,210.332626 
	C112.853271,201.178329 113.085922,192.012436 113.284660,182.390747 
	C113.921967,183.558273 114.829750,185.173706 114.878960,186.814880 
	C115.057671,192.774979 114.718071,198.755478 115.021721,204.705429 
	C115.262154,209.416870 116.744392,213.704437 123.037392,215.872177 
	C123.037392,209.488266 122.892601,203.637238 123.100830,197.798782 
	C123.199257,195.038895 123.592163,192.149185 124.610680,189.624527 
	C125.085121,188.448486 127.366547,188.001434 128.682541,187.784592 
	C127.381592,189.850983 125.270477,191.330078 125.227684,192.866776 
	C124.950813,202.809219 124.967644,212.768356 125.229111,222.713058 
	C125.332672,226.651855 128.508987,227.142136 131.766190,227.069717 
	C134.950287,226.998932 137.653717,226.007858 137.621521,222.434296 
	C137.521667,211.351440 137.130035,200.271225 136.851654,189.189987 
	C137.873016,191.223785 139.748672,193.249298 139.768478,195.292816 
	C139.856186,204.339478 139.658463,213.409637 138.991455,222.428955 
	C138.815140,224.813019 136.597290,227.046112 135.113846,229.637817 
	C134.485077,229.936340 134.059311,229.945541 132.995270,229.949326 
	C131.932083,229.932312 131.507217,229.920746 130.783798,229.684998 
	C129.009247,229.246887 127.533226,229.032944 125.907211,228.539780 
	C122.578995,224.239777 121.301590,227.286423 119.583023,229.859467 
	C118.862869,229.890564 118.450806,229.900467 118.038742,229.910370 
	C116.965179,229.907257 115.891617,229.904160 114.143616,229.693268 
	C112.345589,229.300781 111.222000,229.116074 110.098412,228.931396 
	C110.077698,228.697083 110.056976,228.462769 110.031937,227.875641 
z"/>
<path fill="#F5DA6A" opacity="1.000000" stroke="none" 
	d="
M257.037933,192.998978 
	C255.797104,188.552444 252.515091,187.598053 248.511444,188.219254 
	C244.430588,188.852432 243.967697,191.933945 243.985565,195.324600 
	C244.027481,203.278595 243.968903,211.233139 244.012360,219.187134 
	C244.028290,222.103409 243.327011,225.618179 247.146027,226.707397 
	C250.825546,227.756805 254.450623,227.484848 256.910339,223.297119 
	C258.908905,226.459976 257.264893,228.333206 254.082504,229.405777 
	C249.174683,231.059906 243.984085,228.590652 242.035065,222.941986 
	C242.005920,220.427521 241.993683,218.711319 241.981445,216.995132 
	C241.986755,214.298706 241.992050,211.602264 242.001312,208.001465 
	C242.005280,203.962311 242.005280,200.827515 242.005280,197.692734 
	C241.359421,197.585419 240.713577,197.478119 240.067719,197.370804 
	C239.022278,200.229782 237.976837,203.088745 236.931396,205.947723 
	C235.403275,208.847580 233.875168,211.747452 232.005661,214.775299 
	C233.687851,209.342560 235.846329,203.825516 237.668930,198.199677 
	C238.403244,195.933075 238.401840,193.428131 238.699432,190.627808 
	C243.761230,188.426682 248.858856,186.629410 254.142456,184.766571 
	C253.776794,184.467865 253.113525,183.926041 252.483139,182.938141 
	C254.058456,180.643921 255.600891,178.795761 257.143311,176.947617 
	C258.305664,178.248901 259.467987,179.550186 260.143616,180.306580 
	C258.785736,183.044678 257.672913,185.288574 256.904541,188.094543 
	C257.178619,190.104065 257.108276,191.551529 257.037933,192.998978 
z"/>
<path fill="#F5DA6B" opacity="1.000000" stroke="none" 
	d="
M112.769623,170.946381 
	C111.571815,170.820312 110.381783,170.217392 109.129868,169.800156 
	C103.876144,168.049316 100.160675,170.742844 100.237152,176.247482 
	C100.405319,188.351669 100.447617,200.460983 100.877991,212.556213 
	C101.016762,216.456253 102.208138,220.318848 102.606842,224.602356 
	C101.557281,224.957779 100.818855,224.909409 100.080437,224.861038 
	C100.075531,224.447006 100.070618,224.032974 99.974548,223.005341 
	C99.276680,221.889282 98.669968,221.386810 98.063263,220.884338 
	C98.059319,217.889145 98.055367,214.893936 98.048019,211.048248 
	C98.039055,209.132202 98.033501,208.066666 98.027946,207.001114 
	C98.038574,196.752914 98.002640,186.504288 98.098076,176.256866 
	C98.117775,174.140640 98.626663,172.028976 98.995819,169.517242 
	C103.765800,168.374863 108.643379,165.790024 112.769623,170.946381 
z"/>
<path fill="#FDFAE0" opacity="1.000000" stroke="none" 
	d="
M257.103394,176.540054 
	C255.600891,178.795761 254.058456,180.643921 252.254852,182.705490 
	C251.251312,182.908127 250.508957,182.897339 249.114685,182.686874 
	C244.345566,180.618179 242.412094,176.418350 244.368286,172.415634 
	C246.304688,168.453430 249.972458,168.879028 253.460083,169.985092 
	C254.665955,170.367523 255.684052,171.342056 256.787903,172.046143 
	C256.879761,173.408264 256.971588,174.770370 257.103394,176.540054 
z"/>
<path fill="#FEF8C9" opacity="1.000000" stroke="none" 
	d="
M298.018677,169.014862 
	C298.018677,169.014862 298.381134,169.136719 298.781830,169.415665 
	C300.314331,171.484222 301.446106,173.273819 302.577911,175.063431 
	C302.572876,175.481171 302.567871,175.898926 302.426636,177.000336 
	C302.166473,193.454620 302.042511,209.225235 301.918579,224.995834 
	C301.918579,224.995834 301.762787,225.282745 301.419159,225.566879 
	C300.017853,226.147064 298.960144,226.443115 298.019592,226.389709 
	C298.777344,222.880692 299.918274,219.729370 299.970490,216.560135 
	C300.177673,203.983383 300.075378,191.400894 300.026215,178.820786 
	C299.996033,171.101410 297.583832,169.537415 290.670746,172.608521 
	C290.219147,172.809128 289.736755,172.940491 289.265381,172.743195 
	C292.180939,171.259857 295.099792,170.137360 298.018677,169.014862 
z"/>
<path fill="#F5DA6A" opacity="1.000000" stroke="none" 
	d="
M188.256470,210.923889 
	C190.210709,214.364563 191.753387,218.430939 194.061417,222.002777 
	C195.431213,224.122650 198.127121,226.930634 200.010330,226.776947 
	C202.290558,226.590881 204.854156,223.952209 206.360779,221.738831 
	C208.171234,219.079117 208.997604,215.749557 211.586395,212.445129 
	C212.802505,215.669540 214.018616,218.893967 215.229797,222.505432 
	C213.839279,221.863510 212.453690,220.834564 210.883743,219.668686 
	C209.432037,222.030746 208.217300,224.761307 206.338562,226.911713 
	C202.052658,231.817276 194.878967,230.639908 192.205521,224.766296 
	C191.454987,223.117371 190.983627,221.341370 190.247467,219.288803 
	C189.462753,216.416504 188.814774,213.879059 188.256470,210.923889 
z"/>
<path fill="#F5D966" opacity="1.000000" stroke="none" 
	d="
M297.704651,168.769363 
	C295.099792,170.137360 292.180939,171.259857 289.196594,173.198288 
	C289.018219,179.320267 288.905334,184.626297 288.420593,189.895355 
	C284.029175,189.569138 280.009613,189.279892 275.674866,189.033569 
	C274.584625,189.405182 273.809540,189.733841 272.701416,190.094940 
	C271.158051,191.300186 269.947754,192.473022 268.696869,193.655273 
	C268.656281,193.664688 268.638733,193.746155 268.358459,193.840332 
	C267.155975,194.705170 266.233734,195.475815 265.200348,196.155258 
	C265.089172,196.064056 264.868134,195.880157 264.868134,195.880157 
	C266.724243,190.082733 271.552948,186.537003 278.270844,186.038513 
	C285.063873,185.534454 286.015503,184.444672 285.311371,177.976013 
	C284.486908,170.401962 288.749054,167.066788 297.704651,168.769363 
z"/>
<path fill="#F5DA6A" opacity="1.000000" stroke="none" 
	d="
M257.497314,220.918625 
	C257.123230,213.331741 257.070129,205.606659 257.416687,197.543594 
	C259.253662,198.628738 259.606201,203.193253 263.267487,198.995743 
	C263.736298,199.004364 263.923798,199.008133 264.046021,199.386520 
	C263.610596,201.484802 263.240479,203.208466 262.673981,205.257172 
	C263.041931,209.355286 263.606232,213.128372 264.170532,216.901459 
	C260.760315,216.077316 259.156952,218.212128 257.497314,220.918625 
z"/>
<path fill="#F5DA6A" opacity="1.000000" stroke="none" 
	d="
M236.949005,188.546463 
	C229.690674,187.288483 228.327728,188.013153 225.528824,195.005066 
	C224.509796,197.550674 223.492813,200.097076 222.474884,202.643097 
	C221.995804,202.715210 221.516724,202.787323 221.037643,202.859436 
	C219.499374,198.727524 217.961105,194.595596 216.330383,190.131165 
	C218.117020,189.327637 219.996109,188.856583 223.332077,188.020325 
	C221.114227,191.584763 218.019791,193.939316 222.339661,196.275589 
	C226.227585,185.957825 229.837448,182.730087 236.949005,188.546463 
z"/>
<path fill="#F5D966" opacity="1.000000" stroke="none" 
	d="
M302.254089,224.785889 
	C302.042511,209.225235 302.166473,193.454620 302.463501,177.311737 
	C303.083557,178.467316 303.906677,179.992279 303.918396,181.523483 
	C304.016418,194.340591 304.011230,207.159241 303.898926,219.976227 
	C303.885468,221.513184 303.046143,223.042892 302.254089,224.785889 
z"/>
<path fill="#F5DA6A" opacity="1.000000" stroke="none" 
	d="
M215.017517,188.667908 
	C208.617157,187.405121 206.135193,188.766129 203.774826,195.048141 
	C202.817184,197.596848 201.753067,200.105530 199.497421,202.660477 
	C197.719376,198.337723 195.941330,194.014954 194.128265,189.326736 
	C196.138977,191.747696 198.184692,194.534119 200.043747,197.066269 
	C202.480682,193.661499 205.013428,190.122910 207.777588,186.350296 
	C208.453659,186.097260 208.898300,186.078247 210.031021,186.112854 
	C212.121658,186.482285 213.524246,186.798096 214.926819,187.113922 
	C214.960571,187.528107 214.994324,187.942307 215.017517,188.667908 
z"/>
<path fill="#F5DA6A" opacity="1.000000" stroke="none" 
	d="
M215.200043,224.020844 
	C222.528442,229.131439 225.290497,228.360764 228.805725,220.144897 
	C229.389557,218.780365 230.100204,217.470062 231.008636,215.958862 
	C231.119614,217.954803 231.107208,220.146545 230.785370,222.291870 
	C230.542542,223.910660 229.903778,225.470047 230.085464,228.671280 
	C225.750778,228.671280 221.391022,228.913727 217.102280,228.469879 
	C216.228333,228.379425 215.621506,225.707962 215.200043,224.020844 
z"/>
<path fill="#F5DA6A" opacity="1.000000" stroke="none" 
	d="
M257.015869,171.835266 
	C255.684052,171.342056 254.665955,170.367523 253.460083,169.985092 
	C249.972458,168.879028 246.304688,168.453430 244.368286,172.415634 
	C242.412094,176.418350 244.345566,180.618179 248.743958,182.709991 
	C244.023727,185.212585 242.233292,184.249817 242.072754,179.099304 
	C242.005920,176.954666 241.984116,174.787766 242.208069,172.658997 
	C242.777481,167.246323 247.450256,167.784622 250.922806,167.298691 
	C253.802368,166.895721 256.874695,167.658707 257.015869,171.835266 
z"/>
<path fill="#FBD343" opacity="1.000000" stroke="none" 
	d="
M262.986206,198.990906 
	C259.606201,203.193253 259.253662,198.628738 257.514221,197.080994 
	C257.126129,195.901428 257.040131,194.846451 256.996033,193.395233 
	C257.108276,191.551529 257.178619,190.104065 257.102722,188.349762 
	C259.363831,187.199051 261.771210,186.355179 264.770386,185.303848 
	C264.399170,189.888153 257.918915,192.917953 262.637695,198.112427 
	C262.988831,198.491440 262.986206,198.990906 262.986206,198.990906 
z"/>
<path fill="#FDD042" opacity="1.000000" stroke="none" 
	d="
M131.082336,229.909180 
	C131.507217,229.920746 131.932083,229.932312 132.675262,229.958740 
	C131.693726,235.439011 131.170441,235.611969 123.092178,232.856476 
	C121.591492,231.733780 120.741295,230.786026 119.891098,229.838272 
	C121.301590,227.286423 122.578995,224.239777 125.985306,228.894104 
	C127.836388,229.654831 129.459366,229.782013 131.082336,229.909180 
z"/>
<path fill="#F5D966" opacity="1.000000" stroke="none" 
	d="
M297.902466,226.739197 
	C298.960144,226.443115 300.017853,226.147064 301.386780,225.726883 
	C301.697998,226.701981 301.697998,227.801208 301.697998,229.729828 
	C296.050415,228.935196 290.817688,228.198944 285.342896,226.961533 
	C285.192078,226.120529 285.283295,225.780685 285.653931,225.400513 
	C286.295227,225.252731 286.657074,225.145279 287.365967,225.109116 
	C289.512512,225.698486 291.312012,226.216568 293.506744,226.814789 
	C295.235443,226.843018 296.568970,226.791107 297.902466,226.739197 
z"/>
<path fill="#FBD343" opacity="1.000000" stroke="none" 
	d="
M237.272095,206.020172 
	C237.976837,203.088745 239.022278,200.229782 240.067719,197.370804 
	C240.713577,197.478119 241.359421,197.585419 242.005280,197.692734 
	C242.005280,200.827515 242.005280,203.962311 241.991547,207.552216 
	C240.522812,207.369080 239.067810,206.730835 237.272095,206.020172 
z"/>
<path fill="#FDD042" opacity="1.000000" stroke="none" 
	d="
M105.697357,163.770798 
	C105.285858,167.771820 102.276527,166.815659 99.413940,167.002197 
	C98.425903,162.955841 99.315254,162.473770 105.697357,163.770798 
z"/>
<path fill="#FDFAE0" opacity="1.000000" stroke="none" 
	d="
M264.350739,217.110641 
	C263.606232,213.128372 263.041931,209.355286 262.932007,205.553970 
	C264.497772,210.165543 265.609131,214.805359 266.441162,219.360443 
	C265.797424,219.142319 265.433044,219.008896 265.068695,218.875488 
	C264.889435,218.356934 264.710205,217.838379 264.350739,217.110641 
z"/>
<path fill="#F5DC70" opacity="1.000000" stroke="none" 
	d="
M145.226471,170.312256 
	C145.689590,169.720428 146.152725,169.128616 146.813080,168.327942 
	C150.192032,166.421158 153.054321,166.816132 155.686371,169.819839 
	C155.794296,170.212921 155.515091,170.501068 155.157501,170.406006 
	C151.608780,170.311371 148.417618,170.311813 145.226471,170.312256 
z"/>
<path fill="#FDD042" opacity="1.000000" stroke="none" 
	d="
M109.846817,229.158508 
	C111.222000,229.116074 112.345589,229.300781 113.741043,229.695221 
	C112.442871,230.847397 110.872826,231.789810 109.302780,232.732224 
	C109.400253,231.616699 109.497742,230.501175 109.846817,229.158508 
z"/>
<path fill="#FBD343" opacity="1.000000" stroke="none" 
	d="
M214.943390,186.727631 
	C213.524246,186.798096 212.121658,186.482285 210.364609,186.102692 
	C211.004761,184.859344 211.999390,183.679794 212.994019,182.500244 
	C213.649338,183.780624 214.304657,185.060989 214.943390,186.727631 
z"/>
<path fill="#FEF8C9" opacity="1.000000" stroke="none" 
	d="
M272.958618,226.078201 
	C272.486267,225.788773 272.013885,225.499344 271.109924,224.880722 
	C269.767212,223.378983 268.856171,222.206436 268.329895,221.019745 
	C271.516815,222.874802 274.318878,224.743988 276.771973,226.659241 
	C275.268188,226.496262 274.113403,226.287231 272.958618,226.078201 
z"/>
<path fill="#F5D966" opacity="1.000000" stroke="none" 
	d="
M273.077271,226.415573 
	C274.113403,226.287231 275.268188,226.496262 277.185028,226.764954 
	C279.646210,226.764191 281.345306,226.703796 283.023834,226.847900 
	C283.003235,227.052399 282.989075,227.463242 282.989075,227.463242 
	C279.499359,230.333511 276.311218,229.045609 273.077271,226.415573 
z"/>
<path fill="#FAD341" opacity="1.000000" stroke="none" 
	d="
M119.583015,229.859467 
	C120.741295,230.786026 121.591492,231.733780 122.715393,232.837952 
	C121.692490,233.379227 120.278610,234.241913 119.144730,233.963638 
	C118.499710,233.805344 118.312424,231.781830 117.978882,230.254333 
	C118.450806,229.900467 118.862869,229.890564 119.583015,229.859467 
z"/>
<path fill="#F5D966" opacity="1.000000" stroke="none" 
	d="
M267.945099,221.033875 
	C268.856171,222.206436 269.767212,223.378983 270.830505,224.833862 
	C266.960907,225.489151 265.851379,222.704712 265.044983,219.246429 
	C265.433044,219.008896 265.797424,219.142319 266.525940,219.600281 
	C267.241791,220.294495 267.593445,220.664185 267.945099,221.033875 
z"/>
<path fill="#FAD341" opacity="1.000000" stroke="none" 
	d="
M100.062439,225.249573 
	C100.818855,224.909409 101.557281,224.957779 102.666672,224.987610 
	C103.037636,224.969070 103.008316,224.977325 103.033585,225.283875 
	C103.382843,226.353958 103.706833,227.117493 104.030823,227.881012 
	C101.126411,229.933807 100.118141,228.616501 100.062439,225.249573 
z"/>
<path fill="#F5D966" opacity="1.000000" stroke="none" 
	d="
M302.862152,174.849930 
	C301.446106,173.273819 300.314331,171.484222 298.971497,169.439682 
	C302.683411,169.022141 304.018921,170.941086 302.862152,174.849930 
z"/>
<path fill="#F5DC70" opacity="1.000000" stroke="none" 
	d="
M158.108978,172.707123 
	C157.868973,174.149582 157.701752,175.309799 157.238312,176.384323 
	C156.466415,174.366119 155.990753,172.433594 155.515091,170.501068 
	C155.515091,170.501068 155.794296,170.212921 155.934448,170.068390 
	C156.777008,170.757507 157.479385,171.591171 158.108978,172.707123 
z"/>
<path fill="#FBD343" opacity="1.000000" stroke="none" 
	d="
M241.646301,217.117462 
	C241.993683,218.711319 242.005920,220.427521 242.008469,222.572540 
	C239.023514,221.408569 239.484940,219.405624 241.646301,217.117462 
z"/>
<path fill="#F5DA6B" opacity="1.000000" stroke="none" 
	d="
M104.483055,227.902618 
	C103.706833,227.117493 103.382843,226.353958 103.043488,225.276154 
	C104.725655,225.636032 106.423180,226.310226 108.334869,227.243835 
	C107.344452,227.643585 106.139870,227.783920 104.483055,227.902618 
z"/>
<path fill="#FDD042" opacity="1.000000" stroke="none" 
	d="
M97.707886,207.098846 
	C98.033501,208.066666 98.039055,209.132202 98.039413,210.597321 
	C95.708481,210.089035 95.398399,208.838364 97.707886,207.098846 
z"/>
<path fill="#F5D966" opacity="1.000000" stroke="none" 
	d="
M263.267487,198.995743 
	C262.986206,198.990906 262.988831,198.491440 262.983337,198.241669 
	C263.422150,197.363220 263.866394,196.734543 264.589417,195.993011 
	C264.868134,195.880157 265.089172,196.064056 265.134460,196.454834 
	C265.164551,197.254440 265.149414,197.663284 264.961914,198.227051 
	C264.584869,198.614990 264.358795,198.824966 264.111328,199.011887 
	C263.923798,199.008133 263.736298,199.004364 263.267487,198.995743 
z"/>
<path fill="#FEF8C9" opacity="1.000000" stroke="none" 
	d="
M285.374481,225.440857 
	C285.283295,225.780685 285.192078,226.120529 285.041107,226.718277 
	C284.532623,227.060959 284.083862,227.145721 283.312103,227.346863 
	C282.989075,227.463242 283.003235,227.052399 283.125244,226.570007 
	C283.956299,225.872040 284.665405,225.656448 285.374481,225.440857 
z"/>
<path fill="#FAD341" opacity="1.000000" stroke="none" 
	d="
M98.114174,221.200592 
	C98.669968,221.386810 99.276680,221.889282 99.955307,222.695343 
	C99.406509,222.504913 98.785797,222.010880 98.114174,221.200592 
z"/>
<path fill="#FDFDF0" opacity="1.000000" stroke="none" 
	d="
M155.157501,170.406006 
	C155.990753,172.433594 156.466415,174.366119 157.042114,176.676025 
	C157.128403,182.369537 157.114639,187.685684 157.069092,193.837036 
	C157.215088,195.965927 157.392914,197.259598 157.667465,199.257065 
	C161.202560,196.248428 163.931793,193.894424 166.696136,191.582397 
	C169.107391,189.565720 171.419891,189.590820 173.699509,191.902451 
	C174.610977,192.826736 175.751419,193.525192 176.787643,194.326431 
	C176.813187,195.833603 176.838715,197.340759 176.577637,199.372284 
	C176.084290,200.205475 175.877533,200.514328 175.670807,200.823181 
	C175.156082,201.277130 174.641357,201.731079 173.621094,202.455109 
	C171.522003,204.390762 169.928482,206.056366 168.334961,207.721954 
	C170.111877,209.251541 171.888809,210.781128 173.665726,212.310730 
	C173.665726,212.310730 173.725021,212.321182 173.827591,212.525177 
	C174.129929,213.023590 174.405975,213.195618 174.758286,213.245255 
	C174.758286,213.245255 174.720871,213.274078 174.842407,213.614075 
	C178.448700,216.942413 180.562943,220.295258 177.881607,224.923630 
	C177.559860,225.293976 177.238129,225.664337 176.447906,226.360504 
	C173.374435,226.375610 170.769455,226.064896 168.164474,225.754196 
	C168.011658,225.488556 167.805389,225.274414 167.259491,224.710846 
	C166.325760,223.855209 165.678192,223.400513 165.030624,222.945816 
	C164.888794,222.658066 164.691040,222.416016 164.124146,221.810532 
	C163.009979,220.819794 162.209076,220.238159 161.408173,219.656509 
	C161.408173,219.656509 161.387802,219.593124 161.260162,219.280975 
	C160.154861,218.067459 159.177185,217.166077 157.447708,215.571579 
	C157.306152,217.882217 157.239273,218.973679 157.172409,220.065140 
	C157.082947,221.425400 156.993500,222.785645 156.567993,224.737488 
	C153.783142,226.055878 151.334320,226.782715 148.573669,227.414612 
	C147.829163,227.291245 147.396469,227.262817 146.791580,226.987274 
	C146.078079,226.500671 145.536804,226.261185 144.995514,226.021713 
	C144.930817,225.707794 144.803314,225.421860 144.436676,224.544327 
	C144.067566,213.592346 143.874802,203.259964 143.682037,192.927582 
	C143.696228,191.230606 143.710419,189.533630 143.803955,187.092438 
	C143.815170,185.899063 143.747025,185.449905 143.678894,185.000763 
	C143.706039,182.986191 143.733170,180.971619 143.836975,178.141006 
	C144.206039,175.192368 144.498413,173.059769 144.790802,170.927170 
	C144.790802,170.927170 145.042572,170.643463 145.134521,170.477859 
	C148.417618,170.311813 151.608780,170.311371 155.157501,170.406006 
z"/>
<path fill="#FEFEEE" opacity="1.000000" stroke="none" 
	d="
M136.873276,189.182281 
	C137.130035,200.271225 137.521667,211.351440 137.621521,222.434296 
	C137.653717,226.007858 134.950287,226.998932 131.766190,227.069717 
	C128.508987,227.142136 125.332672,226.651855 125.229111,222.713058 
	C124.967644,212.768356 124.950813,202.809219 125.227684,192.866776 
	C125.270477,191.330078 127.381592,189.850983 128.770142,188.058777 
	C129.434738,187.795151 129.865356,187.817963 130.977432,187.913651 
	C133.394287,188.376694 135.129669,188.766861 136.865067,189.157028 
	C136.865067,189.157028 136.894913,189.174561 136.873276,189.182281 
z"/>
<path fill="#FDFAE2" opacity="1.000000" stroke="none" 
	d="
M126.453705,170.296066 
	C134.685516,167.799347 138.098404,169.570038 138.023392,175.923126 
	C137.963364,181.009491 136.015854,182.953842 131.095078,182.840240 
	C126.400047,182.731857 124.158936,180.426254 124.474358,175.543015 
	C124.584869,173.832077 125.542007,172.175858 126.453705,170.296066 
z"/>
<path fill="#F5DA6A" opacity="1.000000" stroke="none" 
	d="
M192.910126,187.578354 
	C191.557739,187.962616 190.051559,187.835373 188.614059,188.092361 
	C183.710403,188.969055 182.027267,191.894638 183.672958,196.672058 
	C185.114822,200.857803 186.689240,204.997894 188.220886,209.549484 
	C187.681488,209.710724 187.126328,209.480621 186.250427,208.836731 
	C185.649048,207.934036 185.368378,207.445114 185.087708,206.956192 
	C183.955231,203.725174 182.447144,200.566177 181.809280,197.240295 
	C181.300201,194.585968 180.761459,190.386108 182.164276,189.246933 
	C184.884338,187.038040 188.648361,184.524216 192.910126,187.578354 
z"/>
<path fill="#F5DC70" opacity="1.000000" stroke="none" 
	d="
M143.356232,193.114777 
	C143.874802,203.259964 144.067566,213.592346 144.266678,224.380341 
	C143.546234,223.920731 142.199692,223.012955 142.188583,222.089142 
	C142.078125,212.901764 142.178055,203.711639 142.269333,194.522797 
	C142.273392,194.113373 142.765594,193.708801 143.356232,193.114777 
z"/>
<path fill="#F5DC70" opacity="1.000000" stroke="none" 
	d="
M176.851440,193.921967 
	C175.751419,193.525192 174.610977,192.826736 173.699509,191.902451 
	C171.419891,189.590820 169.107391,189.565720 166.696136,191.582397 
	C163.931793,193.894424 161.202560,196.248428 157.667465,199.257065 
	C157.392914,197.259598 157.215088,195.965927 157.122177,194.296799 
	C158.972672,193.299362 161.091690,193.103226 162.442856,191.981857 
	C168.369736,187.063004 169.587936,186.842560 176.643143,190.874283 
	C176.998123,191.002441 176.941284,191.072357 176.941284,191.072357 
	C176.932602,191.887405 176.923904,192.702438 176.851440,193.921967 
z"/>
<path fill="#FFD43A" opacity="1.000000" stroke="none" 
	d="
M142.179794,171.126328 
	C139.867249,169.919693 137.554703,168.713058 134.879517,167.317200 
	C139.167221,164.177048 139.620255,164.398590 142.732224,170.694382 
	C142.592300,171.075043 142.179794,171.126328 142.179794,171.126328 
z"/>
<path fill="#F5DC70" opacity="1.000000" stroke="none" 
	d="
M178.243256,224.858902 
	C180.562943,220.295258 178.448700,216.942413 174.845932,213.637436 
	C181.239258,215.320175 182.787460,219.901840 178.243256,224.858902 
z"/>
<path fill="#F5DC70" opacity="1.000000" stroke="none" 
	d="
M173.676208,211.956573 
	C171.888809,210.781128 170.111877,209.251541 168.334961,207.721954 
	C169.928482,206.056366 171.522003,204.390762 173.468277,202.663452 
	C171.702744,205.571014 169.963501,208.545959 173.676208,211.956573 
z"/>
<path fill="#FFD43A" opacity="1.000000" stroke="none" 
	d="
M119.753525,169.870636 
	C119.215897,170.846939 118.846039,171.556076 117.723251,173.708817 
	C117.304688,171.065201 116.784950,169.670105 117.033798,168.429138 
	C117.133934,167.929733 118.919312,167.768250 119.937706,167.452972 
	C119.932236,168.169815 119.926758,168.886642 119.753525,169.870636 
z"/>
<path fill="#F5DC70" opacity="1.000000" stroke="none" 
	d="
M168.128265,226.109268 
	C170.769455,226.064896 173.374435,226.375610 176.380310,226.602158 
	C174.492844,227.312057 172.204483,228.106094 169.368484,228.704254 
	C168.617645,228.276459 168.391251,228.070007 168.141632,227.888992 
	C168.125107,227.414108 168.108582,226.939224 168.128265,226.109268 
z"/>
<path fill="#F5DC70" opacity="1.000000" stroke="none" 
	d="
M148.885498,227.509552 
	C151.334320,226.782715 153.783142,226.055878 156.552917,225.146652 
	C157.181244,225.421249 157.488586,225.878265 157.658813,226.764130 
	C157.289001,227.402481 157.084641,227.636719 156.908646,227.895691 
	C154.871384,228.241058 152.834106,228.586426 150.211151,228.804504 
	C149.378815,228.287979 149.132156,227.898758 148.885498,227.509552 
z"/>
<path fill="#FFD43A" opacity="1.000000" stroke="none" 
	d="
M148.573669,227.414612 
	C149.132156,227.898758 149.378815,228.287979 149.819901,228.812393 
	C149.861694,230.055405 149.709061,231.163239 149.556427,232.271057 
	C149.202148,232.430908 148.847870,232.590759 148.493576,232.750610 
	C147.676575,231.431335 146.859573,230.112061 146.213348,228.325394 
	C146.639496,227.707870 146.832718,227.500015 146.963791,227.234406 
	C147.396469,227.262817 147.829163,227.291245 148.573669,227.414612 
z"/>
<path fill="#F5DC70" opacity="1.000000" stroke="none" 
	d="
M142.141022,171.485687 
	C142.179794,171.126328 142.592300,171.075043 142.797928,171.044739 
	C143.400848,170.986084 143.798157,170.957718 144.493134,170.928253 
	C144.498413,173.059769 144.206039,175.192368 143.770020,177.714661 
	C139.890625,176.803848 142.428772,173.975677 142.141022,171.485687 
z"/>
<path fill="#F5DC70" opacity="1.000000" stroke="none" 
	d="
M157.587021,220.039673 
	C157.239273,218.973679 157.306152,217.882217 157.447708,215.571579 
	C159.177185,217.166077 160.154861,218.067459 161.228790,219.269867 
	C160.217255,219.718658 159.109436,219.866440 157.587021,220.039673 
z"/>
<path fill="#F5DA6B" opacity="1.000000" stroke="none" 
	d="
M136.815384,188.816360 
	C135.129669,188.766861 133.394287,188.376694 131.295776,187.850128 
	C132.876999,187.967712 134.821350,188.221710 136.815384,188.816360 
z"/>
<path fill="#FFD43A" opacity="1.000000" stroke="none" 
	d="
M167.832367,228.041275 
	C168.391251,228.070007 168.617645,228.276459 168.963379,228.688950 
	C167.843735,229.635544 166.581528,230.401581 165.319336,231.167618 
	C165.072113,230.749451 164.824875,230.331284 164.577652,229.913132 
	C165.559464,229.339935 166.541275,228.766739 167.832367,228.041275 
z"/>
<path fill="#FFD43A" opacity="1.000000" stroke="none" 
	d="
M184.761627,206.982834 
	C185.368378,207.445114 185.649048,207.934036 185.980530,208.705109 
	C184.959671,208.597778 183.887955,208.208298 182.816254,207.818817 
	C183.356018,207.549042 183.895782,207.279251 184.761627,206.982834 
z"/>
<path fill="#F5DA6B" opacity="1.000000" stroke="none" 
	d="
M113.665108,178.963516 
	C113.325089,178.282913 113.238411,177.489822 113.271858,176.310608 
	C113.567474,176.900009 113.742966,177.875519 113.665108,178.963516 
z"/>
<path fill="#FFD43A" opacity="1.000000" stroke="none" 
	d="
M175.123840,186.425232 
	C174.538071,186.472702 174.120743,186.347153 173.703400,186.221619 
	C173.819199,185.947372 173.934998,185.673141 174.050781,185.398911 
	C174.464630,185.683350 174.878448,185.967773 175.123840,186.425232 
z"/>
<path fill="#FFD43A" opacity="1.000000" stroke="none" 
	d="
M141.422943,226.877869 
	C141.470245,227.463150 141.344757,227.880157 141.219269,228.297165 
	C140.945221,228.181412 140.671173,228.065643 140.397110,227.949890 
	C140.681458,227.536453 140.965805,227.123016 141.422943,226.877869 
z"/>
<path fill="#F5DC70" opacity="1.000000" stroke="none" 
	d="
M161.380692,220.006058 
	C162.209076,220.238159 163.009979,220.819794 163.920822,221.690689 
	C163.138245,221.438492 162.245728,220.897049 161.380692,220.006058 
z"/>
<path fill="#F5DC70" opacity="1.000000" stroke="none" 
	d="
M146.791580,226.987274 
	C146.832718,227.500015 146.639496,227.707870 146.198547,227.968994 
	C145.691391,227.590622 145.369797,227.101227 145.021851,226.316772 
	C145.536804,226.261185 146.078079,226.500671 146.791580,226.987274 
z"/>
<path fill="#FFD43A" opacity="1.000000" stroke="none" 
	d="
M157.082947,228.072205 
	C157.084641,227.636719 157.289001,227.402481 157.702789,227.045410 
	C158.083282,227.306549 158.282715,227.715256 158.482132,228.123978 
	C158.073837,228.165558 157.665543,228.207138 157.082947,228.072205 
z"/>
<path fill="#F5DC70" opacity="1.000000" stroke="none" 
	d="
M165.088013,223.263641 
	C165.678192,223.400513 166.325760,223.855209 167.059723,224.607910 
	C166.479202,224.464432 165.812302,224.022934 165.088013,223.263641 
z"/>
<path fill="#FFD43A" opacity="1.000000" stroke="none" 
	d="
M176.963135,191.030609 
	C177.281693,190.596603 177.635239,190.134430 177.988770,189.672241 
	C178.103470,189.775024 178.218185,189.877823 178.332916,189.980621 
	C178.032516,190.299072 177.732117,190.617523 177.186493,191.004181 
	C176.941284,191.072357 176.998123,191.002441 176.963135,191.030609 
z"/>
<path fill="#F5DC70" opacity="1.000000" stroke="none" 
	d="
M143.532516,185.172150 
	C143.747025,185.449905 143.815170,185.899063 143.755875,186.669739 
	C143.547684,186.442017 143.466904,185.892776 143.532516,185.172150 
z"/>
<path fill="#F5DC70" opacity="1.000000" stroke="none" 
	d="
M175.942200,200.711609 
	C175.877533,200.514328 176.084290,200.205475 176.530701,199.747391 
	C176.584793,199.932129 176.399200,200.266083 175.942200,200.711609 
z"/>
<path fill="#F5DC70" opacity="1.000000" stroke="none" 
	d="
M174.680756,213.002380 
	C174.405975,213.195618 174.129929,213.023590 173.838684,212.497192 
	C174.032547,212.429977 174.317871,212.594742 174.680756,213.002380 
z"/>
<path fill="#FFD43A" opacity="1.000000" stroke="none" 
	d="
M130.783798,229.684998 
	C129.459366,229.782013 127.836388,229.654831 126.135315,229.173309 
	C127.533226,229.032944 129.009247,229.246887 130.783798,229.684998 
z"/>
<path fill="#FDFEF9" opacity="1.000000" stroke="none" 
	d="
M285.653931,225.400513 
	C284.665405,225.656448 283.956299,225.872040 283.145813,226.365509 
	C281.345306,226.703796 279.646210,226.764191 277.534027,226.718887 
	C274.318878,224.743988 271.516815,222.874802 268.329895,221.019745 
	C267.593445,220.664185 267.241791,220.294495 266.805328,219.684998 
	C265.609131,214.805359 264.497772,210.165543 263.128357,205.228943 
	C263.240479,203.208466 263.610596,201.484802 264.046021,199.386520 
	C264.358795,198.824966 264.584869,198.614990 265.303772,198.145447 
	C266.758179,196.521332 267.698456,195.133743 268.638733,193.746155 
	C268.638733,193.746155 268.656281,193.664688 269.051941,193.697632 
	C270.643250,192.507874 271.838837,191.285172 273.034424,190.062500 
	C273.809540,189.733841 274.584625,189.405182 275.959778,189.266235 
	C278.936096,190.241287 281.274658,191.447311 283.701813,191.664795 
	C285.333832,191.811035 287.091156,190.558868 288.792419,189.932343 
	C288.905334,184.626297 289.018219,179.320267 289.199890,173.559143 
	C289.736755,172.940491 290.219147,172.809128 290.670746,172.608521 
	C297.583832,169.537415 299.996033,171.101410 300.026215,178.820786 
	C300.075378,191.400894 300.177673,203.983383 299.970490,216.560135 
	C299.918274,219.729370 298.777344,222.880692 298.019592,226.389725 
	C296.568970,226.791107 295.235443,226.843018 293.405579,226.503677 
	C291.241180,224.134995 289.582245,222.107864 287.018951,225.037811 
	C286.657074,225.145279 286.295227,225.252731 285.653931,225.400513 
M275.584991,204.502029 
	C275.414886,205.638550 274.765564,206.996399 275.168304,207.868347 
	C276.202240,210.107040 277.287476,213.275925 279.125031,213.942474 
	C281.306763,214.733902 284.999207,214.101761 286.727448,212.589737 
	C288.287964,211.224442 288.995789,207.631577 288.479797,205.389175 
	C287.125824,199.504776 281.257690,198.922928 275.584991,204.502029 
M266.528442,203.931351 
	C266.890656,204.485550 267.252869,205.039749 267.615082,205.593948 
	C267.937988,205.278641 268.260895,204.963333 268.583801,204.648010 
	C268.038208,204.273499 267.492584,203.898987 266.528442,203.931351 
z"/>
<path fill="#FEF8C9" opacity="1.000000" stroke="none" 
	d="
M288.420593,189.895355 
	C287.091156,190.558868 285.333832,191.811035 283.701813,191.664795 
	C281.274658,191.447311 278.936096,190.241287 276.274902,189.223297 
	C280.009613,189.279892 284.029175,189.569138 288.420593,189.895355 
z"/>
<path fill="#FEF8C9" opacity="1.000000" stroke="none" 
	d="
M268.358459,193.840332 
	C267.698456,195.133743 266.758179,196.521332 265.476105,197.990540 
	C265.149414,197.663284 265.164551,197.254440 265.245605,196.546021 
	C266.233734,195.475815 267.155975,194.705170 268.358459,193.840332 
z"/>
<path fill="#FEF8C9" opacity="1.000000" stroke="none" 
	d="
M272.701385,190.094925 
	C271.838837,191.285172 270.643250,192.507874 269.092529,193.688202 
	C269.947754,192.473022 271.158051,191.300186 272.701385,190.094925 
z"/>
<path fill="#FEF8C9" opacity="1.000000" stroke="none" 
	d="
M287.365967,225.109131 
	C289.582245,222.107864 291.241180,224.134995 293.010376,226.423523 
	C291.312012,226.216568 289.512512,225.698486 287.365967,225.109131 
z"/>
<path fill="#F3DF7E" opacity="1.000000" stroke="none" 
	d="
M275.787262,204.165833 
	C281.257690,198.922928 287.125824,199.504776 288.479797,205.389175 
	C288.995789,207.631577 288.287964,211.224442 286.727448,212.589737 
	C284.999207,214.101761 281.306763,214.733902 279.125031,213.942474 
	C277.287476,213.275925 276.202240,210.107040 275.168304,207.868347 
	C274.765564,206.996399 275.414886,205.638550 275.787262,204.165833 
M277.063843,207.444534 
	C277.404175,208.370712 277.498291,209.828491 278.131714,210.121948 
	C279.926025,210.953140 282.069153,211.965576 283.825073,211.623611 
	C285.035797,211.387817 286.777740,208.862518 286.577484,207.639587 
	C286.313232,206.025940 284.657166,204.022614 283.103210,203.372025 
	C280.255981,202.179977 277.941650,203.448013 277.063843,207.444534 
z"/>
<path fill="#FDFAE0" opacity="1.000000" stroke="none" 
	d="
M266.737732,203.727905 
	C267.492584,203.898987 268.038208,204.273499 268.583801,204.648010 
	C268.260895,204.963333 267.937988,205.278641 267.615082,205.593933 
	C267.252869,205.039749 266.890656,204.485550 266.737732,203.727905 
z"/>
<path fill="#FAD341" opacity="1.000000" stroke="none" 
	d="
M277.069153,207.050110 
	C277.941650,203.448013 280.255981,202.179977 283.103210,203.372025 
	C284.657166,204.022614 286.313232,206.025940 286.577484,207.639587 
	C286.777740,208.862518 285.035797,211.387817 283.825073,211.623611 
	C282.069153,211.965576 279.926025,210.953140 278.131714,210.121948 
	C277.498291,209.828491 277.404175,208.370712 277.069153,207.050110 
z"/>
</svg>